<svg xmlns="http://www.w3.org/2000/svg" xmlns:xlink="http://www.w3.org/1999/xlink" width="32" height="32" viewBox="0 0 32 32"><defs><clipPath id="b"><rect width="32" height="32"/></clipPath></defs><g id="a" clip-path="url(#b)"><g transform="translate(1.539 -1)"><g transform="translate(0 2.691)"><g transform="translate(0 0)"><path d="M27.423,4.191a5.121,5.121,0,0,0-7.243,0,.576.576,0,0,0,0,.815L22.944,7.77l-.409.409a11.761,11.761,0,0,0-16.145,0L5.979,7.77,8.743,5.006a.576.576,0,0,0,0-.815A5.122,5.122,0,1,0,1.5,11.434a.576.576,0,0,0,.815,0l2.85-2.85.424.424A11.772,11.772,0,0,0,8.636,27L5.306,30.326a.576.576,0,0,0,.815.815l3.6-3.6a11.771,11.771,0,0,0,9.483,0l3.6,3.6a.576.576,0,0,0,.815-.815L20.286,27A11.772,11.772,0,0,0,23.334,9.009l.424-.424,2.85,2.85a.576.576,0,0,0,.815,0,5.121,5.121,0,0,0,0-7.243ZM1.937,10.183A3.97,3.97,0,0,1,7.492,4.628Zm23.157,6.573A10.632,10.632,0,1,1,14.461,6.123,10.644,10.644,0,0,1,25.093,16.755Zm1.893-6.573L21.431,4.628a3.97,3.97,0,0,1,5.555,5.555Z" transform="translate(0 -2.691)" fill="#fff"/></g></g><g transform="translate(4.981 7.275)"><g transform="translate(0 0)"><path d="M97.659,83.837a9.48,9.48,0,1,0,9.48,9.48A9.491,9.491,0,0,0,97.659,83.837Zm0,17.808a8.328,8.328,0,1,1,8.328-8.328A8.337,8.337,0,0,1,97.659,101.645Z" transform="translate(-88.179 -83.837)" fill="#fff"/></g></g><g transform="translate(11.083 9.828)"><path d="M199.579,129.029a.576.576,0,0,0-.576.576v6.112l-2.633,2.633a.576.576,0,0,0,.815.815l2.74-2.74c.01-.01.02-.021.029-.032a.574.574,0,0,0,.2-.438v-6.351A.576.576,0,0,0,199.579,129.029Z" transform="translate(-196.201 -129.029)" fill="#fff"/></g><g transform="translate(18.618 18.171)"><path d="M332.2,276.752a.576.576,0,0,0-.718.386,6.343,6.343,0,0,1-1.731,2.791.576.576,0,0,0,.789.84,7.5,7.5,0,0,0,2.045-3.3A.576.576,0,0,0,332.2,276.752Z" transform="translate(-329.572 -276.727)" fill="#fff"/></g><g transform="translate(16.376 22.351)"><path d="M291.6,351.035a.576.576,0,0,0-.774-.254c-.185.094-.377.179-.57.254a.576.576,0,1,0,.415,1.075c.229-.089.456-.189.675-.3A.576.576,0,0,0,291.6,351.035Z" transform="translate(-289.887 -350.719)" fill="#fff"/></g></g></g></svg>